<?xml version="1.0" encoding="UTF-8"?>
<!-- Created with Inkscape (http://www.inkscape.org/) -->
<svg width="289" height="100" version="1.1" viewBox="0 0 289 100" xmlns="http://www.w3.org/2000/svg" xmlns:cc="http://creativecommons.org/ns#" xmlns:dc="http://purl.org/dc/elements/1.1/" xmlns:rdf="http://www.w3.org/1999/02/22-rdf-syntax-ns#">
 <metadata>
  <rdf:RDF>
   <cc:Work rdf:about="">
    <dc:format>image/svg+xml</dc:format>
    <dc:type rdf:resource="http://purl.org/dc/dcmitype/StillImage"/>
    <dc:title/>
   </cc:Work>
  </rdf:RDF>
 </metadata>
 <path d="m30.714 98.952c-1.925-0.70921-6.1332-2.6818-9.3515-4.3834-3.2184-1.7017-6.4275-3.094-7.1313-3.094-0.70389 0-2.6832-1.4354-4.3985-3.1898-2.3822-2.4366-3.1187-4.0851-3.1187-6.981 0-3.2099-0.3833-3.8873-2.5-4.4186-2.4172-0.60667-2.5-0.90427-2.5-8.9851 0-5.7726 0.52124-9.4507 1.6852-11.892l1.6852-3.5339h46.63v-28.102l3.75-1.6225c2.5594-1.1074 7.7979-1.7637 16.5-2.0672 12.64-0.44086 12.75-0.46523 12.75-2.8264 0-2.2444-0.3461-2.3818-6-2.3818-4.2056 0-6-0.38247-6-1.2789 0-1.6271 12.143-13.721 13.777-13.721 0.88259 0 1.2231 2.784 1.2231 10v10h5.9336c5.7296 0 5.9444-0.0945 6.25-2.75l0.31642-2.75h23l0.31642 2.75c0.30482 2.6492 0.53011 2.75 6.143 2.75 4.2567 0 5.9817-0.40415 6.4022-1.5 0.45305-1.1806 2.5051-1.5 9.6384-1.5s9.1853 0.31935 9.6384 1.5c0.3809 0.9926 1.9493 1.5 4.6367 1.5 8.5996 0 17.024 2.1456 19.963 5.084 2.0138 2.0138 3.9938 2.8893 7.0326 3.1095 3.5642 0.25828 4.2817 0.67445 4.5608 2.6456l0.33123 2.3391 96.838-0.67814v8l-48.405-0.33899c-48.358-0.33866-48.405-0.33696-49.068 1.75-0.54106 1.7048-1.4783 2.089-5.0956 2.089-2.4379 0-4.4326 0.45-4.4326 1s1.575 1 3.5 1c2.4444 0 3.5 0.45238 3.5 1.5 0 1.0378-1.0426 1.5-3.3834 1.5-2.5424 0-3.5134 0.49714-3.9064 2-0.50629 1.936-0.0307 2 14.873 2h15.396l8.2176 6.75c17.608 14.464 19.878 17.283 16.303 20.25-0.8303 0.68909-1.5 2.869-1.5 4.8827 0 4.1475-3.0558 8.1099-7.6331 9.8975-1.5768 0.61582-7.3466 2.0422-12.822 3.1698-9.6077 1.9786-12.92 2.046-95 1.9335-66.715-0.0914-85.8-0.3945-88.545-1.406zm33.222-4.0341c-1.2224-0.85619-2.2225-2.2062-2.2225-3 0-1.1097-1.5024-1.4433-6.5-1.4433-4.3003 0-6.5 0.39638-6.5 1.1713 0 0.64419-0.74474 1.9942-1.655 3-1.5932 1.7605-1.2677 1.8287 8.7225 1.8287 9.6776 0 10.228-0.10499 8.155-1.5567zm27.978 0.3567c-0.66-0.66-1.2-2.01-1.2-3 0-1.5619-0.92593-1.8-7-1.8-4.6824 0-7 0.38779-7 1.1713 0 0.64419-0.74474 1.9942-1.655 3-1.5927 1.7599-1.284 1.8287 8.2 1.8287 7.665 0 9.5883-0.26667 8.655-1.2zm29.013-1.8-0.44031-3h-7.3865c-6.4463 0-7.3865 0.22912-7.3865 1.8 0 0.99-0.54 2.34-1.2 3-0.93333 0.93333 0.80596 1.2 7.8268 1.2h9.0268zm31.987 1.8c-0.66-0.66-1.2-2.01-1.2-3 0-1.5812-0.95876-1.8-7.8865-1.8h-7.8865l-0.44031 3-0.4403 3h9.5268c7.4097 0 9.2601-0.26667 8.3268-1.2zm29.455-0.62874c-0.91025-1.0058-1.655-2.3558-1.655-3 0-0.78347-2.3176-1.1713-7-1.1713-6.0741 0-7 0.23809-7 1.8 0 0.99-0.54 2.34-1.2 3-0.93333 0.93333 0.99 1.2 8.655 1.2 9.484 0 9.7927-0.0688 8.2-1.8287zm-148-1.6635c-0.84935-1.8312-1.9516-2.5006-4.1559-2.5239-1.65-0.0174-4.7874-0.44605-6.9719-0.95254-2.1846-0.50649-4.1272-0.76562-4.317-0.57585-0.33243 0.33243 14.608 6.429 15.945 6.5065 0.36076 0.0209 0.13576-1.0835-0.5-2.4542zm171 0c-0.95-2.0482-1.8685-2.4922-5.1559-2.4922s-4.2059 0.44396-5.1559 2.4922l-1.1559 2.4922h12.624zm13.952 1.4844c0.55432-0.55432 3.0068-1.6348 5.45-2.4011l4.4422-1.3933-4.75-0.0989c-2.9461-0.0613-4.75 0.33396-4.75 1.0409 0 0.62687-0.7875 1.7376-1.75 2.4682s-1.2775 1.3428-0.7 1.3602c0.5775 0.0175 1.5035-0.42173 2.0578-0.97605zm66.392-57.492c0-1.925-0.3375-3.5-0.75-3.5s-0.75 1.575-0.75 3.5 0.3375 3.5 0.75 3.5 0.75-1.575 0.75-3.5z" fill="#00331b"/>
 <path d="m30.714 98.952c-1.925-0.70921-6.1332-2.6818-9.3515-4.3834s-6.4275-3.094-7.1313-3.094c-0.70389 0-2.6832-1.4354-4.3985-3.1898-2.3822-2.4366-3.1187-4.0851-3.1187-6.9809 0-3.2099-0.3833-3.8873-2.5-4.4186-2.4172-0.60668-2.5-0.90427-2.5-8.9851 0-5.7726 0.52124-9.4507 1.6852-11.892l1.6852-3.5339h46.63v-28.102l3.75-1.6225c2.5595-1.1074 7.7979-1.7637 16.5-2.0672 12.64-0.44086 12.75-0.46523 12.75-2.8265 0-2.2444-0.3461-2.3818-6-2.3818-4.2056 0-6-0.38247-6-1.2789 0-1.6271 12.143-13.721 13.777-13.721 0.88259 0 1.2231 2.784 1.2231 10v10h5.9336c5.7296 0 5.9445-0.09453 6.25-2.75l0.31642-2.75h23l0.31642 2.75c0.30482 2.6491 0.53011 2.75 6.143 2.75 4.2567 0 5.9817-0.40415 6.4022-1.5 0.45305-1.1806 2.5051-1.5 9.6384-1.5s9.1853 0.31935 9.6384 1.5c0.3809 0.9926 1.9493 1.5 4.6367 1.5 8.5996 0 17.024 2.1456 19.963 5.084 2.0138 2.0138 3.9938 2.8893 7.0326 3.1095 3.5642 0.25828 4.2817 0.67446 4.5608 2.6456l0.33123 2.3391 96.838-0.67814v8l-48.405-0.33899c-48.358-0.33866-48.405-0.33697-49.068 1.75-0.54106 1.7047-1.4783 2.089-5.0956 2.089-2.4379 0-4.4326 0.45-4.4326 1s1.575 1 3.5 1c2.4444 0 3.5 0.45238 3.5 1.5 0 1.0378-1.0426 1.5-3.3834 1.5-2.5424 0-3.5134 0.49714-3.9064 2-0.50629 1.936-0.0307 2 14.873 2h15.396l8.2176 6.75c17.608 14.464 19.878 17.283 16.303 20.25-0.8303 0.68909-1.5 2.869-1.5 4.8827 0 4.1475-3.0558 8.1099-7.6331 9.8975-1.5768 0.61582-7.3466 2.0422-12.822 3.1698-9.6077 1.9786-12.92 2.046-95 1.9335-66.715-0.0914-85.8-0.3945-88.545-1.406zm33.223-4.0341c-1.2224-0.85619-2.2225-2.2062-2.2225-3 0-1.1097-1.5024-1.4433-6.5-1.4433-4.3003 0-6.5 0.39638-6.5 1.1713 0 0.64419-0.74474 1.9942-1.655 3-1.5932 1.7605-1.2677 1.8287 8.7225 1.8287 9.6776 0 10.228-0.10499 8.155-1.5567zm27.977 0.3567c-0.66-0.66-1.2-2.01-1.2-3 0-1.5619-0.92593-1.8-7-1.8-4.6824 0-7 0.3878-7 1.1713 0 0.64419-0.74474 1.9942-1.655 3-1.5927 1.7599-1.284 1.8287 8.2 1.8287 7.665 0 9.5883-0.26667 8.655-1.2zm9.6346-0.39669c3.0608-2.1439 2.5722-6.3336-0.96936-8.3123-2.3598-1.3185-2.9077-1.2933-5.25 0.24151-3.2654 2.1395-3.4508 5.9688-0.39272 8.1108 2.7921 1.9557 3.7713 1.9497 6.6121-0.03999zm-5.7884-1.8477c-2.7007-3.2541 1.7687-7.1693 4.7644-4.1736 1.2736 1.2735 1.404 2.0549 0.56528 3.3867-1.4602 2.3187-3.7748 2.6604-5.3297 0.78686zm3.4011-2.641c-0.32198-0.52097-1.0117-0.68378-1.5326-0.3618-0.52097 0.32198-0.68378 1.0117-0.3618 1.5326 0.32198 0.52097 1.0117 0.68378 1.5326 0.3618 0.52097-0.32198 0.68378-1.0117 0.3618-1.5326zm21.766 3.0854-0.44031-3h-7.3865c-6.4463 0-7.3865 0.22912-7.3865 1.8 0 0.99-0.54 2.34-1.2 3-0.93333 0.93333 0.80596 1.2 7.8268 1.2h9.0268zm11.587 1.8c2.0542-2.0542 1.3747-5.6394-1.4152-7.4675-2.3434-1.5355-2.8891-1.5604-5.25-0.23964-2.9237 1.6356-3.9329 5.2404-2.0891 7.4621 1.4526 1.7503 7.0912 1.908 8.7543 0.24496zm-6.7538-1.2444c-2.7007-3.2541 1.7687-7.1693 4.7644-4.1736 1.2736 1.2735 1.404 2.0549 0.56528 3.3867-1.4602 2.3187-3.7748 2.6604-5.3297 0.78686zm3.401-2.641c-0.32197-0.52097-1.0116-0.68378-1.5326-0.3618-0.52097 0.32198-0.68378 1.0117-0.3618 1.5326 0.32197 0.52097 1.0116 0.68378 1.5326 0.3618 0.52097-0.32198 0.68378-1.0117 0.3618-1.5326zm23.753 3.8854c-0.66-0.66-1.2-2.01-1.2-3 0-1.5812-0.95876-1.8-7.8865-1.8h-7.8865l-0.44031 3-0.4403 3h9.5268c7.4097 0 9.2601-0.26667 8.3268-1.2zm9.6346-0.39669c3.0608-2.1439 2.5722-6.3336-0.96936-8.3123-2.3598-1.3185-2.9076-1.2933-5.25 0.24151-3.2654 2.1395-3.4508 5.9688-0.39272 8.1108 2.7921 1.9557 3.7713 1.9497 6.6121-0.03999zm-5.7884-1.8477c-2.7007-3.2541 1.7687-7.1693 4.7644-4.1736 1.2736 1.2735 1.404 2.0549 0.56528 3.3867-1.4602 2.3187-3.7748 2.6604-5.3297 0.78686zm3.401-2.641c-0.32197-0.52097-1.0116-0.68378-1.5326-0.3618-0.52097 0.32198-0.68378 1.0117-0.3618 1.5326 0.32197 0.52097 1.0116 0.68378 1.5326 0.3618 0.52097-0.32198 0.68378-1.0117 0.3618-1.5326zm22.208 4.2567c-0.91025-1.0058-1.655-2.3558-1.655-3 0-0.78346-2.3176-1.1713-7-1.1713-6.0741 0-7 0.2381-7 1.8 0 0.99-0.54 2.34-1.2 3-0.93333 0.93333 0.99 1.2 8.655 1.2 9.484 0 9.7927-0.06884 8.2-1.8287zm-148-1.6635c-0.84935-1.8312-1.9516-2.5006-4.1559-2.5239-1.65-0.01741-4.7874-0.44606-6.9719-0.95254s-4.1272-0.76562-4.317-0.57585c-0.33243 0.33243 14.608 6.429 15.945 6.5065 0.36075 0.02089 0.13575-1.0835-0.5-2.4542zm10.179 0.8955c3.0608-2.1439 2.5722-6.3336-0.96936-8.3123-2.3598-1.3185-2.9077-1.2933-5.25 0.24151-3.2654 2.1395-3.4508 5.9688-0.39272 8.1108 2.7921 1.9557 3.7713 1.9497 6.6121-0.03999zm-5.7884-1.8477c-2.7007-3.2541 1.7687-7.1693 4.7644-4.1736 1.2735 1.2735 1.404 2.0549 0.56528 3.3867-1.4602 2.3187-3.7748 2.6604-5.3297 0.78686zm3.4011-2.641c-0.32198-0.52097-1.0117-0.68378-1.5326-0.3618-0.52097 0.32198-0.68378 1.0117-0.3618 1.5326 0.32198 0.52097 1.0117 0.68378 1.5326 0.3618 0.52097-0.32198 0.68378-1.0117 0.3618-1.5326zm30.387 4.4887c3.0608-2.1439 2.5722-6.3336-0.96936-8.3123-2.3598-1.3185-2.9077-1.2933-5.25 0.24151-3.2654 2.1395-3.4508 5.9688-0.39272 8.1108 2.7921 1.9557 3.7713 1.9497 6.6121-0.03999zm-5.7884-1.8477c-2.7007-3.2541 1.7687-7.1693 4.7644-4.1736 1.2735 1.2735 1.404 2.0549 0.56528 3.3867-1.4602 2.3187-3.7748 2.6604-5.3297 0.78686zm3.4011-2.641c-0.32198-0.52097-1.0117-0.68378-1.5326-0.3618-0.52097 0.32198-0.68378 1.0117-0.3618 1.5326 0.32198 0.52097 1.0117 0.68378 1.5326 0.3618 0.52097-0.32198 0.68378-1.0117 0.3618-1.5326zm121.39 4.4887c3.0608-2.1439 2.5722-6.3336-0.96936-8.3123-2.3598-1.3185-2.9076-1.2933-5.25 0.24151-3.2654 2.1395-3.4508 5.9688-0.39272 8.1108 2.7921 1.9557 3.7713 1.9497 6.6121-0.03999zm-5.7884-1.8477c-2.7007-3.2541 1.7687-7.1693 4.7644-4.1736 1.2736 1.2735 1.404 2.0549 0.56528 3.3867-1.4602 2.3187-3.7748 2.6604-5.3297 0.78686zm3.401-2.641c-0.32197-0.52097-1.0116-0.68378-1.5326-0.3618-0.52097 0.32198-0.68378 1.0117-0.3618 1.5326 0.32197 0.52097 1.0116 0.68378 1.5326 0.3618 0.52097-0.32198 0.68378-1.0117 0.3618-1.5326zm16.209 3.5932c-0.95-2.0482-1.8685-2.4922-5.1559-2.4922s-4.2059 0.44395-5.1559 2.4922l-1.1559 2.4922h12.624zm10.179 0.8955c3.0608-2.1439 2.5722-6.3336-0.96936-8.3123-2.3598-1.3185-2.9076-1.2933-5.25 0.24151-3.2654 2.1395-3.4508 5.9688-0.39272 8.1108 2.7921 1.9557 3.7713 1.9497 6.6121-0.03999zm-5.7884-1.8477c-2.7007-3.2541 1.7687-7.1693 4.7644-4.1736 1.2736 1.2735 1.404 2.0549 0.56528 3.3867-1.4602 2.3187-3.7748 2.6604-5.3297 0.78686zm3.401-2.641c-0.32197-0.52097-1.0116-0.68378-1.5326-0.3618-0.52097 0.32198-0.68378 1.0117-0.3618 1.5326 0.32197 0.52097 1.0116 0.68378 1.5326 0.3618 0.52097-0.32198 0.68378-1.0117 0.3618-1.5326zm6.1606 5.0776c0.55432-0.55432 3.0068-1.6348 5.45-2.4011l4.4422-1.3933-4.75-0.09887c-2.9461-0.06132-4.75 0.33397-4.75 1.0409 0 0.62687-0.7875 1.7376-1.75 2.4682s-1.2775 1.3428-0.7 1.3602c0.5775 0.01749 1.5035-0.42173 2.0578-0.97605zm-93.663-12.242c0.0531-2.6413-0.14261-2.75-4.9531-2.75-4.6875 0-4.9317 0.12297-3.8102 1.9188 0.94349 1.5108 0.91925 2.255-0.11397 3.5-2.9091 3.5052-8.6244 0.30399-6.2488-3.5 1.127-1.8045 0.87028-1.9188-4.3102-1.9188-4.9343 0-5.5085 0.21953-5.5085 2.1061 0 3.7531 4.678 6.3408 12.463 6.8939 5.9657 0.42389 7.447 0.19557 9.7315-1.5 1.7472-1.2967 2.7141-2.967 2.75-4.75zm-90.022 3.1731c4.4125-4.4125 4.0474-5.9231-1.4316-5.9231-4.1946 0-4.425 0.13361-3.3102 1.9188 0.94349 1.5108 0.91925 2.255-0.11397 3.5-2.9091 3.5052-8.6244 0.30399-6.2488-3.5 1.0968-1.7562 0.898-1.9188-2.3453-1.9188-3.2557 0-3.455 0.1656-2.4531 2.0378 0.59982 1.1208 0.82194 2.8842 0.49361 3.9187-0.69819 2.1998 0.75758 2.7562 7.6593 2.9276 3.9663 0.09846 5.1385-0.34938 7.75-2.9609zm28 0c4.4125-4.4125 4.0474-5.9231-1.4316-5.9231-4.1946 0-4.425 0.13361-3.3102 1.9188 2.3756 3.804-3.3397 7.0052-6.2488 3.5-1.0332-1.245-1.0575-1.9892-0.11397-3.5 1.1215-1.7958 0.87733-1.9188-3.8102-1.9188-5.9089 0-6.4327 1.3495-2.2585 5.8185 2.3808 2.5489 3.5116 2.9601 8.4231 3.0629 5.0793 0.10625 5.9951-0.20338 8.75-2.9583zm29.327 0.59329c1.5125-1.3312 2.75-3.342 2.75-4.4684 0-1.7914-0.62756-2.048-5.0085-2.048-4.6875 0-4.9317 0.12297-3.8102 1.9188 2.3756 3.804-3.3397 7.0052-6.2488 3.5-1.0332-1.245-1.0575-1.9892-0.11397-3.5 1.1215-1.7958 0.87733-1.9188-3.8102-1.9188-5.9089 0-6.4327 1.3495-2.2585 5.8185 2.4752 2.65 3.3995 2.9529 9.25 3.0313 5.5241 0.074 6.9129-0.27634 9.25-2.3334zm61 0c1.5125-1.3312 2.75-3.342 2.75-4.4684 0-1.8161-0.62366-2.048-5.5085-2.048-5.1804 0-5.4371 0.11426-4.3102 1.9188 0.94349 1.5108 0.91925 2.255-0.11397 3.5-2.9091 3.5052-8.6244 0.30399-6.2488-3.5 1.127-1.8045 0.87028-1.9188-4.3102-1.9188-5.2599 0-5.5085 0.11685-5.5085 2.5897 0 4.5928 3.4488 6.3435 12.5 6.3454 7.0404 0.0015 8.3299-0.28866 10.75-2.4188zm28.673-0.59329c4.5282-4.5282 4.0732-5.9231-1.9316-5.9231-4.6875 0-4.9317 0.12297-3.8102 1.9188 0.94349 1.5108 0.91925 2.255-0.11397 3.5-2.9091 3.5052-8.6244 0.30399-6.2488-3.5 1.1215-1.7958 0.87733-1.9188-3.8102-1.9188-4.3809 0-5.0085 0.25661-5.0085 2.048 0 1.1264 1.2375 3.1372 2.75 4.4684 2.2628 1.9916 3.8437 2.426 8.9231 2.452 5.5804 0.02857 6.4685-0.26384 9.25-3.0453zm24 0c4.282-4.282 4.0239-5.9231-0.93155-5.9231-3.7016 0-3.9167 0.1469-2.8102 1.9188 0.94349 1.5108 0.91925 2.255-0.11397 3.5-2.9091 3.5052-8.6244 0.30399-6.2488-3.5 1.0959-1.7548 0.89849-1.9188-2.3102-1.9188-4.3384 0-4.5655 1.7426-0.75847 5.8185 3.9356 4.2135 9.0238 4.2539 13.173 0.1046zm16.289 0.06776c-0.2429-1.655 0.11513-3.68 0.79564-4.5 1.069-1.2881 0.54076-1.4908-3.8852-1.4908-6.0291 0-6.5694 1.3251-2.3724 5.8185 3.7676 4.0336 6.0392 4.1053 5.462 0.17236zm7.7482 1.5572c2.6565-3.2008-1.2452-8.1178-4.7101-5.9357-3.4623 2.1804-2.2288 7.3877 1.75 7.3877 0.96531 0 2.2974-0.65338 2.9601-1.452zm-4.514-1.6352c-1.0305-1.6674 1.2872-3.5795 2.6667-2.2 1.1539 1.1539 0.43172 3.2871-1.1129 3.2871-0.48508 0-1.1843-0.48921-1.5538-1.0871zm-208.67-0.08907c1.4821-1.4821-0.21808-3.8238-2.7762-3.8238-2.5581 0-4.2583 2.3417-2.7762 3.8238 0.64691 0.64691 1.8962 1.1762 2.7762 1.1762 0.88 0 2.1293-0.52929 2.7762-1.1762zm-3.7762-1.3238c0-0.825 0.45-1.5 1-1.5 0.55 0 1 0.675 1 1.5s-0.45 1.5-1 1.5c-0.55 0-1-0.675-1-1.5zm15.554-0.58713c1.0305-1.6674-1.2872-3.5795-2.6667-2.2-1.1539 1.1539-0.43172 3.2871 1.1129 3.2871 0.48508 0 1.1843-0.48921 1.5539-1.0871zm-2.5539-0.91287c0-0.55 0.45-1 1-1s1 0.45 1 1-0.45 1-1 1-1-0.45-1-1zm30.554 0.91287c1.0305-1.6674-1.2872-3.5795-2.6667-2.2-1.1539 1.1539-0.43172 3.2871 1.1129 3.2871 0.48508 0 1.1843-0.48921 1.5539-1.0871zm-2.5539-0.91287c0-0.55 0.45-1 1-1 0.55 0 1 0.45 1 1s-0.45 1-1 1c-0.55 0-1-0.45-1-1zm30.554 0.91287c1.0305-1.6674-1.2872-3.5795-2.6667-2.2-1.1539 1.1539-0.43172 3.2871 1.1129 3.2871 0.48508 0 1.1843-0.48921 1.5539-1.0871zm-2.5539-0.91287c0-0.55 0.45-1 1-1s1 0.45 1 1-0.45 1-1 1-1-0.45-1-1zm32.554 0.91287c1.0305-1.6674-1.2872-3.5795-2.6667-2.2-1.1539 1.1539-0.43172 3.2871 1.1129 3.2871 0.48508 0 1.1843-0.48921 1.5538-1.0871zm-2.5538-0.91287c0-0.55 0.45-1 1-1s1 0.45 1 1-0.45 1-1 1-1-0.45-1-1zm16.729 1.3958c-0.3323-0.33229-1.1948-0.36782-1.9167-0.07895-0.79773 0.31923-0.56078 0.55618 0.60417 0.60417 1.0542 0.04342 1.6448-0.19293 1.3125-0.52522zm15.825-0.48296c1.0305-1.6674-1.2872-3.5795-2.6667-2.2-1.1539 1.1539-0.43172 3.2871 1.1129 3.2871 0.48508 0 1.1843-0.48921 1.5538-1.0871zm-2.5538-0.91287c0-0.55 0.45-1 1-1s1 0.45 1 1-0.45 1-1 1-1-0.45-1-1zm17.729 1.3958c-0.3323-0.33229-1.1948-0.36782-1.9167-0.07895-0.79773 0.31923-0.56078 0.55618 0.60417 0.60417 1.0542 0.04342 1.6448-0.19293 1.3125-0.52522zm14.825-0.48296c1.0305-1.6674-1.2872-3.5795-2.6667-2.2-1.1539 1.1539-0.43172 3.2871 1.1129 3.2871 0.48508 0 1.1843-0.48921 1.5538-1.0871zm-2.5538-0.91287c0-0.55 0.45-1 1-1s1 0.45 1 1-0.45 1-1 1-1-0.45-1-1zm28.554 0.91287c1.0305-1.6674-1.2872-3.5795-2.6667-2.2-1.1539 1.1539-0.43172 3.2871 1.1129 3.2871 0.48508 0 1.1843-0.48921 1.5538-1.0871zm-2.5538-0.91287c0-0.55 0.45-1 1-1s1 0.45 1 1-0.45 1-1 1-1-0.45-1-1zm-99.271 0.39583c-0.33229-0.33229-1.1948-0.36782-1.9167-0.07895-0.79773 0.31923-0.56078 0.55618 0.60417 0.60417 1.0542 0.04342 1.6448-0.19293 1.3125-0.52522zm90 0c-0.3323-0.33229-1.1948-0.36782-1.9167-0.07895-0.79773 0.31923-0.56078 0.55618 0.60417 0.60417 1.0542 0.04342 1.6448-0.19293 1.3125-0.52522zm24 0c-0.3323-0.33229-1.1948-0.36782-1.9167-0.07895-0.79773 0.31923-0.56078 0.55618 0.60417 0.60417 1.0542 0.04342 1.6448-0.19293 1.3125-0.52522zm-171-1c-0.33229-0.33229-1.1948-0.36782-1.9167-0.07895-0.79773 0.31923-0.56078 0.55618 0.60417 0.60417 1.0542 0.04342 1.6448-0.19293 1.3125-0.52522zm87 0c-0.3323-0.33229-1.1948-0.36782-1.9167-0.07895-0.79773 0.31923-0.56078 0.55618 0.60417 0.60417 1.0542 0.04342 1.6448-0.19293 1.3125-0.52522zm31 0c-0.3323-0.33229-1.1948-0.36782-1.9167-0.07895-0.79773 0.31923-0.56078 0.55618 0.60417 0.60417 1.0542 0.04342 1.6448-0.19293 1.3125-0.52522zm-90-1c-0.33229-0.33229-1.1948-0.36782-1.9167-0.07895-0.79773 0.31923-0.56078 0.55618 0.60417 0.60417 1.0542 0.04342 1.6448-0.19293 1.3125-0.52522zm29 0c-0.33229-0.33229-1.1948-0.36782-1.9167-0.07895-0.79773 0.31923-0.56078 0.55618 0.60417 0.60417 1.0542 0.04342 1.6448-0.19293 1.3125-0.52522zm90 0c-0.3323-0.33229-1.1948-0.36782-1.9167-0.07895-0.79773 0.31923-0.56078 0.55618 0.60417 0.60417 1.0542 0.04342 1.6448-0.19293 1.3125-0.52522zm24 0c-0.3323-0.33229-1.1948-0.36782-1.9167-0.07895-0.79773 0.31923-0.56078 0.55618 0.60417 0.60417 1.0542 0.04342 1.6448-0.19293 1.3125-0.52522zm-171-1c-0.33229-0.33229-1.1948-0.36782-1.9167-0.07895-0.79773 0.31923-0.56078 0.55618 0.60417 0.60417 1.0542 0.04342 1.6448-0.19293 1.3125-0.52522zm87 0c-0.3323-0.33229-1.1948-0.36782-1.9167-0.07895-0.79773 0.31923-0.56078 0.55618 0.60417 0.60417 1.0542 0.04342 1.6448-0.19293 1.3125-0.52522zm31 0c-0.3323-0.33229-1.1948-0.36782-1.9167-0.07895-0.79773 0.31923-0.56078 0.55618 0.60417 0.60417 1.0542 0.04342 1.6448-0.19293 1.3125-0.52522zm75.771-2.2266c0-1.2939-24.066-22.169-25.558-22.169-2.4712 0-0.21052 2.9761 5.8692 7.7266 3.6789 2.8746 9.1639 7.6349 12.189 10.579 5.3162 5.1731 7.5 6.2982 7.5 3.8642zm-10.442-3.5996c-0.65291-0.7867-4.9464-4.1617-9.5412-7.5l-8.3541-6.0696h-202.93l-0.60298 2.25c-0.33164 1.2375-0.60912 4.6125-0.61663 7.5l-0.013655 5.25h111.62c96.692 0 111.46-0.19133 110.44-1.4304zm-212.79-16.226c-0.67703-0.27392-2.027-0.2906-3-0.03705-0.97297 0.25354-0.41903 0.47766 1.231 0.49804 1.65 0.02038 2.4461-0.18706 1.769-0.46099zm6.481-0.03339c-0.9625-0.25153-2.5375-0.25153-3.5 0-0.9625 0.25153-0.175 0.45732 1.75 0.45732s2.7125-0.2058 1.75-0.45732zm6.5 0.02705c-0.6875-0.27741-1.8125-0.27741-2.5 0-0.6875 0.27741-0.125 0.50439 1.25 0.50439s1.9375-0.22697 1.25-0.50439zm6 0c-0.6875-0.27741-1.8125-0.27741-2.5 0-0.6875 0.27741-0.125 0.50439 1.25 0.50439s1.9375-0.22697 1.25-0.50439zm5 0c-0.6875-0.27741-1.8125-0.27741-2.5 0-0.6875 0.27741-0.125 0.50439 1.25 0.50439s1.9375-0.22697 1.25-0.50439zm5.4792 0.05811c-0.33229-0.33229-1.1948-0.36782-1.9167-0.07895-0.79773 0.31923-0.56078 0.55618 0.60417 0.60417 1.0542 0.04342 1.6448-0.19293 1.3125-0.52522zm5.5208-0.05812c-0.6875-0.27741-1.8125-0.27741-2.5 0-0.6875 0.27741-0.125 0.50439 1.25 0.50439s1.9375-0.22697 1.25-0.50439zm4.4792 0.05811c-0.33229-0.33229-1.1948-0.36782-1.9167-0.07895-0.79773 0.31923-0.56078 0.55618 0.60417 0.60417 1.0542 0.04342 1.6448-0.19293 1.3125-0.52522zm7.2708-0.39582c-1.9388-1.2529-3-1.2529-3 0 0 0.55 1.0125 0.99311 2.25 0.98469 1.8194-0.01238 1.963-0.20081 0.75-0.98469zm129-0.5c0-1.9482-9.9411-1.9482-15 0-3.3521 1.2909-3.1092 1.3511 5.75 1.4239 7.5894 0.06242 9.25-0.19321 9.25-1.4239zm18 0c0-1.2083-1.5556-1.5-8-1.5s-8 0.29167-8 1.5 1.5556 1.5 8 1.5 8-0.29167 8-1.5zm-30.75-2.699 3.75-1.699v-12.396c0-14.785-0.19921-15.098-10.621-16.715-10.741-1.6665-105.5-0.77291-111.13 1.048l-4.25 1.3743v13.171c0 9.3245 0.36505 13.47 1.25 14.194 3.232 2.6451 12.171 3.0502 63.75 2.8891 47.975-0.14992 53.887-0.34263 57.25-1.8662zm-162.98 0.54304c-0.67703-0.27392-2.027-0.2906-3-0.03705-0.97297 0.25354-0.41903 0.47766 1.231 0.49804 1.65 0.02038 2.4461-0.18706 1.769-0.46099zm6.481-0.03339c-0.9625-0.25153-2.5375-0.25153-3.5 0-0.9625 0.25153-0.175 0.45732 1.75 0.45732s2.7125-0.2058 1.75-0.45732zm6.5 0.02705c-0.6875-0.27741-1.8125-0.27741-2.5 0-0.6875 0.27741-0.125 0.50439 1.25 0.50439s1.9375-0.22697 1.25-0.50439zm6 0c-0.6875-0.27741-1.8125-0.27741-2.5 0-0.6875 0.27741-0.125 0.50439 1.25 0.50439s1.9375-0.22697 1.25-0.50439zm5 0c-0.6875-0.27741-1.8125-0.27741-2.5 0-0.6875 0.27741-0.125 0.50439 1.25 0.50439s1.9375-0.22697 1.25-0.50439zm5.4792 0.05811c-0.33229-0.33229-1.1948-0.36782-1.9167-0.07895-0.79773 0.31923-0.56078 0.55618 0.60417 0.60417 1.0542 0.04342 1.6448-0.19293 1.3125-0.52522zm5.5208-0.05812c-0.6875-0.27741-1.8125-0.27741-2.5 0-0.6875 0.27741-0.125 0.50439 1.25 0.50439s1.9375-0.22697 1.25-0.50439zm4.4792 0.05811c-0.33229-0.33229-1.1948-0.36782-1.9167-0.07895-0.79773 0.31923-0.56078 0.55618 0.60417 0.60417 1.0542 0.04342 1.6448-0.19293 1.3125-0.52522zm137.27-18.396v-6h-8v12h8zm96 0.5c0-1.925-0.3375-3.5-0.75-3.5s-0.75 1.575-0.75 3.5 0.3375 3.5 0.75 3.5 0.75-1.575 0.75-3.5zm-8 0c0-1.3101-5.4444-1.5-43-1.5s-43 0.18992-43 1.5 5.4444 1.5 43 1.5 43-0.18992 43-1.5zm-156.19-18.25c-0.29268-1.5198-1.5832-1.75-9.8096-1.75s-9.517 0.23021-9.8096 1.75c-0.30309 1.5738 0.68443 1.75 9.8096 1.75s10.113-0.17617 9.8096-1.75zm27.94 1.0215c-2.0625-0.21574-5.4375-0.21574-7.5 0-2.0625 0.21574-0.375 0.39226 3.75 0.39226s5.8125-0.17652 3.75-0.39226zm-62.75-11.772c0-3.575-0.1255-6.5-0.27889-6.5-0.15339 0-3.1779 2.925-6.7211 6.5l-6.4422 6.5h13.442z"/>
</svg>
